# xmcd
#
# Track frame offsets: 
#        150
#        22649
#        45981
#        68938
#        90969
#        111918
#        135031
#        200035
#        227285
#
# Disc length: 3291 seconds
#
# Revision: 0
# Processed by: cddbd v1.5.2PL0 Copyright (c) Steve Scherf et al.
# Submitted via: ExactAudioCopy v1.0b3
#
DISCID=5d0cd909
DTITLE=Huong Lan, Elvis Phuong - Tren Dinh Dau Thuong
DYEAR=1990
DGENRE=
TTITLE0=Huong Lan - Buon khong em
TTITLE1=Niem vui don coi
TTITLE2=Huong Lan - Tinh dep nhu mo
TTITLE3=Huong Lan - Minh mat nhau bao gio
TTITLE4=Huong Lan - Co ua
TTITLE5=Huong Lan - Da Lat co lieu
TTITLE6=Truyen ca Tren dinh dau thuong
TTITLE7=Huong Lan - Vong tay cho doi
TTITLE8=Huong Lan - Tinh he
EXTD=
EXTT0=
EXTT1=
EXTT2=
EXTT3=
EXTT4=
EXTT5=
EXTT6=
EXTT7=
EXTT8=
PLAYORDER=
